<svg width="104" height="105" viewBox="0 0 104 105" fill="none" xmlns="http://www.w3.org/2000/svg">
<path d="M3 35C3 17.3269 17.3269 3 35 3H103V71C103 88.6731 88.6731 103 71 103H3V35Z" fill="#31BDF9"/>
<path d="M3 35C3 17.3269 17.3269 3 35 3H103V71C103 88.6731 88.6731 103 71 103H3V35Z" stroke="#31BDF9"/>
<path d="M50.1896 25L48.1525 26.6354L11.3085 57.559L15.3826 60.9784L19.0138 57.9307V85.4348H44.5213V61.6474H55.8579V85.4348H81.3653V57.9307L84.9966 60.9784L89.0707 57.559L52.2266 26.6354L50.1896 25ZM50.1896 31.7645L75.697 53.1732V80.6773H61.5262V56.89H38.853V80.6773H24.6822V53.1732L50.1896 31.7645Z" fill="white"/>
<path d="M50.1896 25L48.1525 26.6354L11.3085 57.559L15.3826 60.9784L19.0138 57.9307V85.4348H44.5213V61.6474H55.8579V85.4348H81.3653V57.9307L84.9966 60.9784L89.0707 57.559L52.2266 26.6354L50.1896 25ZM50.1896 31.7645L75.697 53.1732V80.6773H61.5262V56.89H38.853V80.6773H24.6822V53.1732L50.1896 31.7645Z" fill="url(#paint0_linear)"/>
<path d="M50.1896 25L48.1525 26.6354L11.3085 57.559L15.3826 60.9784L19.0138 57.9307V85.4348H44.5213V61.6474H55.8579V85.4348H81.3653V57.9307L84.9966 60.9784L89.0707 57.559L52.2266 26.6354L50.1896 25ZM50.1896 31.7645L75.697 53.1732V80.6773H61.5262V56.89H38.853V80.6773H24.6822V53.1732L50.1896 31.7645Z" stroke="#31BDF9"/>
<defs>
<linearGradient id="paint0_linear" x1="50.1896" y1="25" x2="50.1896" y2="85.4348" gradientUnits="userSpaceOnUse">
<stop stop-color="white"/>
<stop offset="1" stop-color="white" stop-opacity="0"/>
</linearGradient>
</defs>
</svg>
